<svg xmlns="http://www.w3.org/2000/svg" version="1.1" xmlns:xlink="http://www.w3.org/1999/xlink" xmlns:svgjs="http://svgjs.dev/svgjs" viewBox="0 0 800 800"><g fill="none" stroke-width="3" stroke="#ffa93f" stroke-linecap="round"><line x1="670.5" y1="400" x2="129.5" y2="400" transform="rotate(0, 400, 400)" opacity="0.29"></line><line x1="609.5" y1="400" x2="190.5" y2="400" transform="rotate(4, 400, 400)" opacity="0.75"></line><line x1="204.5" y1="400" x2="595.5" y2="400" transform="rotate(8, 400, 400)" opacity="0.09"></line><line x1="744" y1="400" x2="56" y2="400" transform="rotate(12, 400, 400)" opacity="0.57"></line><line x1="45.5" y1="400" x2="754.5" y2="400" transform="rotate(16, 400, 400)" opacity="0.63"></line><line x1="423.5" y1="400" x2="376.5" y2="400" transform="rotate(20, 400, 400)" opacity="0.91"></line><line x1="151.5" y1="400" x2="648.5" y2="400" transform="rotate(24, 400, 400)" opacity="0.56"></line><line x1="248.5" y1="400" x2="551.5" y2="400" transform="rotate(28, 400, 400)" opacity="0.81"></line><line x1="364" y1="400" x2="436" y2="400" transform="rotate(32, 400, 400)" opacity="0.61"></line><line x1="545" y1="400" x2="255" y2="400" transform="rotate(36, 400, 400)" opacity="0.95"></line><line x1="39" y1="400" x2="761" y2="400" transform="rotate(40, 400, 400)" opacity="0.53"></line><line x1="223" y1="400" x2="577" y2="400" transform="rotate(44, 400, 400)" opacity="0.16"></line><line x1="85" y1="400" x2="715" y2="400" transform="rotate(48, 400, 400)" opacity="0.57"></line><line x1="683.5" y1="400" x2="116.5" y2="400" transform="rotate(52, 400, 400)" opacity="0.73"></line><line x1="82" y1="400" x2="718" y2="400" transform="rotate(56, 400, 400)" opacity="0.73"></line><line x1="315.5" y1="400" x2="484.5" y2="400" transform="rotate(60, 400, 400)" opacity="0.66"></line><line x1="677" y1="400" x2="123" y2="400" transform="rotate(64, 400, 400)" opacity="0.21"></line><line x1="491.5" y1="400" x2="308.5" y2="400" transform="rotate(68, 400, 400)" opacity="0.10"></line><line x1="23" y1="400" x2="777" y2="400" transform="rotate(72, 400, 400)" opacity="0.34"></line><line x1="275" y1="400" x2="525" y2="400" transform="rotate(76, 400, 400)" opacity="0.84"></line><line x1="389.5" y1="400" x2="410.5" y2="400" transform="rotate(80, 400, 400)" opacity="0.98"></line><line x1="454" y1="400" x2="346" y2="400" transform="rotate(84, 400, 400)" opacity="0.41"></line><line x1="24.5" y1="400" x2="775.5" y2="400" transform="rotate(88, 400, 400)" opacity="0.84"></line><line x1="182.5" y1="400" x2="617.5" y2="400" transform="rotate(92, 400, 400)" opacity="0.55"></line><line x1="53.5" y1="400" x2="746.5" y2="400" transform="rotate(96, 400, 400)" opacity="0.99"></line><line x1="352" y1="400" x2="448" y2="400" transform="rotate(100, 400, 400)" opacity="0.19"></line><line x1="112.5" y1="400" x2="687.5" y2="400" transform="rotate(104, 400, 400)" opacity="0.15"></line><line x1="331.5" y1="400" x2="468.5" y2="400" transform="rotate(108, 400, 400)" opacity="0.50"></line><line x1="533" y1="400" x2="267" y2="400" transform="rotate(112, 400, 400)" opacity="1.00"></line><line x1="306" y1="400" x2="494" y2="400" transform="rotate(116, 400, 400)" opacity="0.39"></line><line x1="450" y1="400" x2="350" y2="400" transform="rotate(120, 400, 400)" opacity="0.83"></line><line x1="504.5" y1="400" x2="295.5" y2="400" transform="rotate(124, 400, 400)" opacity="0.43"></line><line x1="670" y1="400" x2="130" y2="400" transform="rotate(128, 400, 400)" opacity="0.64"></line><line x1="129" y1="400" x2="671" y2="400" transform="rotate(132, 400, 400)" opacity="0.24"></line><line x1="419.5" y1="400" x2="380.5" y2="400" transform="rotate(136, 400, 400)" opacity="0.84"></line><line x1="423.5" y1="400" x2="376.5" y2="400" transform="rotate(140, 400, 400)" opacity="1.00"></line><line x1="582.5" y1="400" x2="217.5" y2="400" transform="rotate(144, 400, 400)" opacity="0.14"></line><line x1="169.5" y1="400" x2="630.5" y2="400" transform="rotate(148, 400, 400)" opacity="0.51"></line><line x1="559.5" y1="400" x2="240.5" y2="400" transform="rotate(152, 400, 400)" opacity="0.61"></line><line x1="191.5" y1="400" x2="608.5" y2="400" transform="rotate(156, 400, 400)" opacity="0.17"></line><line x1="544" y1="400" x2="256" y2="400" transform="rotate(160, 400, 400)" opacity="0.67"></line><line x1="535.5" y1="400" x2="264.5" y2="400" transform="rotate(164, 400, 400)" opacity="0.49"></line><line x1="77" y1="400" x2="723" y2="400" transform="rotate(168, 400, 400)" opacity="0.28"></line><line x1="298" y1="400" x2="502" y2="400" transform="rotate(172, 400, 400)" opacity="0.19"></line><line x1="622" y1="400" x2="178" y2="400" transform="rotate(176, 400, 400)" opacity="0.13"></line><line x1="502.5" y1="400" x2="297.5" y2="400" transform="rotate(180, 400, 400)" opacity="0.22"></line><line x1="517.5" y1="400" x2="282.5" y2="400" transform="rotate(184, 400, 400)" opacity="0.64"></line><line x1="546" y1="400" x2="254" y2="400" transform="rotate(188, 400, 400)" opacity="0.82"></line><line x1="336.5" y1="400" x2="463.5" y2="400" transform="rotate(192, 400, 400)" opacity="0.55"></line><line x1="98" y1="400" x2="702" y2="400" transform="rotate(196, 400, 400)" opacity="0.46"></line><line x1="657" y1="400" x2="143" y2="400" transform="rotate(200, 400, 400)" opacity="0.12"></line><line x1="184" y1="400" x2="616" y2="400" transform="rotate(204, 400, 400)" opacity="0.92"></line><line x1="477" y1="400" x2="323" y2="400" transform="rotate(208, 400, 400)" opacity="0.98"></line><line x1="299" y1="400" x2="501" y2="400" transform="rotate(212, 400, 400)" opacity="0.10"></line><line x1="69.5" y1="400" x2="730.5" y2="400" transform="rotate(216, 400, 400)" opacity="0.95"></line><line x1="611" y1="400" x2="189" y2="400" transform="rotate(220, 400, 400)" opacity="0.18"></line><line x1="196.5" y1="400" x2="603.5" y2="400" transform="rotate(224, 400, 400)" opacity="0.90"></line><line x1="424.5" y1="400" x2="375.5" y2="400" transform="rotate(228, 400, 400)" opacity="0.50"></line><line x1="553.5" y1="400" x2="246.5" y2="400" transform="rotate(232, 400, 400)" opacity="0.48"></line><line x1="94.5" y1="400" x2="705.5" y2="400" transform="rotate(236, 400, 400)" opacity="0.37"></line><line x1="282.5" y1="400" x2="517.5" y2="400" transform="rotate(240, 400, 400)" opacity="0.49"></line><line x1="478.5" y1="400" x2="321.5" y2="400" transform="rotate(244, 400, 400)" opacity="0.30"></line><line x1="583.5" y1="400" x2="216.5" y2="400" transform="rotate(248, 400, 400)" opacity="0.32"></line><line x1="352.5" y1="400" x2="447.5" y2="400" transform="rotate(252, 400, 400)" opacity="0.47"></line><line x1="569.5" y1="400" x2="230.5" y2="400" transform="rotate(256, 400, 400)" opacity="0.86"></line><line x1="95" y1="400" x2="705" y2="400" transform="rotate(260, 400, 400)" opacity="0.71"></line><line x1="75.5" y1="400" x2="724.5" y2="400" transform="rotate(264, 400, 400)" opacity="0.42"></line><line x1="714" y1="400" x2="86" y2="400" transform="rotate(268, 400, 400)" opacity="0.27"></line><line x1="463.5" y1="400" x2="336.5" y2="400" transform="rotate(272, 400, 400)" opacity="0.97"></line><line x1="702.5" y1="400" x2="97.5" y2="400" transform="rotate(276, 400, 400)" opacity="0.18"></line><line x1="423.5" y1="400" x2="376.5" y2="400" transform="rotate(280, 400, 400)" opacity="0.83"></line><line x1="125.5" y1="400" x2="674.5" y2="400" transform="rotate(284, 400, 400)" opacity="0.33"></line><line x1="650.5" y1="400" x2="149.5" y2="400" transform="rotate(288, 400, 400)" opacity="0.11"></line><line x1="598" y1="400" x2="202" y2="400" transform="rotate(292, 400, 400)" opacity="0.72"></line><line x1="489.5" y1="400" x2="310.5" y2="400" transform="rotate(296, 400, 400)" opacity="0.20"></line><line x1="596.5" y1="400" x2="203.5" y2="400" transform="rotate(300, 400, 400)" opacity="0.57"></line><line x1="52.5" y1="400" x2="747.5" y2="400" transform="rotate(304, 400, 400)" opacity="0.98"></line><line x1="617" y1="400" x2="183" y2="400" transform="rotate(308, 400, 400)" opacity="0.47"></line><line x1="278.5" y1="400" x2="521.5" y2="400" transform="rotate(312, 400, 400)" opacity="0.20"></line><line x1="120.5" y1="400" x2="679.5" y2="400" transform="rotate(316, 400, 400)" opacity="0.32"></line><line x1="444" y1="400" x2="356" y2="400" transform="rotate(320, 400, 400)" opacity="0.32"></line><line x1="603" y1="400" x2="197" y2="400" transform="rotate(324, 400, 400)" opacity="0.07"></line><line x1="497.5" y1="400" x2="302.5" y2="400" transform="rotate(328, 400, 400)" opacity="0.48"></line><line x1="635" y1="400" x2="165" y2="400" transform="rotate(332, 400, 400)" opacity="0.74"></line><line x1="481.5" y1="400" x2="318.5" y2="400" transform="rotate(336, 400, 400)" opacity="0.29"></line><line x1="307" y1="400" x2="493" y2="400" transform="rotate(340, 400, 400)" opacity="0.42"></line><line x1="724" y1="400" x2="76" y2="400" transform="rotate(344, 400, 400)" opacity="0.46"></line><line x1="464" y1="400" x2="336" y2="400" transform="rotate(348, 400, 400)" opacity="0.72"></line></g></svg>