<svg xmlns="http://www.w3.org/2000/svg" version="1.1" xmlns:xlink="http://www.w3.org/1999/xlink" xmlns:svgjs="http://svgjs.dev/svgjs" viewBox="0 0 800 800"><defs><linearGradient x1="50%" y1="0%" x2="50%" y2="100%" id="ccchaos-grad"><stop stop-color="#004c4c" stop-opacity="1" offset="0%"></stop><stop stop-color="#ffa93f" stop-opacity="1" offset="100%"></stop></linearGradient></defs><g stroke-width="2" stroke="url(#ccchaos-grad)" fill="none" stroke-linecap="round"><path d="M107.12 108.95Q115.6 111.96 124.07 115.06 132.54 118.12 141.02 120.97 157.97 125.31 174.92 128.02 191.86 127.51 208.81 125.06 217.29 122.85 225.76 120.22 234.24 117.29 242.71 114.21 251.18 111.12 259.66 108.16 276.61 103.46 293.56 100.27 310.5 100.23 327.45 102.17 335.93 104.17 344.4 106.65 352.87 109.47 361.35 112.5 369.82 115.61 378.3 118.64 395.25 123.67 412.19 127.32 429.14 127.9 446.09 126.49 454.57 124.7 463.04 122.41 471.51 119.72 479.99 116.75 488.46 113.66 496.94 110.58 505.41 107.66 513.89 105.05 530.83 101.49 547.78 99.72 564.73 101.24 581.68 104.58 590.15 107.12 598.63 109.99 607.1 113.05 615.58 116.15 624.05 119.15 632.53 121.91 646.15 129.85 653.83 144.63 657.04 153.86 660.84 163.08 665.17 172.31 669.93 181.53 675.03 190.75 680.35 199.98 685.79 209.2 691.23 218.42 696.56 227.65 701.68 236.87 706.47 246.1 710.83 255.32 714.68 264.54 717.94 273.77 720.53 282.99 722.4 292.21 723.52 301.44 723.87 310.66 723.42 319.89 722.2 329.11 720.23 338.33 717.55 347.56 714.21 356.78 710.29 366 705.87 375.23 701.03 384.45 695.88 393.68 690.52 402.9 685.08 412.12 679.65 421.35 674.35 430.57 669.29 439.79 664.58 449.02 660.32 458.24 656.58 467.47 653.46 476.69 651.01 485.91 649.29 495.14 648.33 504.36 648.15 513.58 648.76 522.81 650.14 532.03 652.26 541.26 655.08 550.48 658.54 559.7 662.57 568.93 667.09 578.15 672 587.37 677.2 596.6 682.59 605.82 688.04 615.05 693.45 624.27 698.71 633.49 703.7 642.72 708.33 651.94 712.49 661.16 716.1 670.39 719.09 679.61 721.39 688.84 722.96 698.06 719.06 709.52 704.94 705.8 695.53 698.91 686.11 691.4 676.69 683.63 667.28 675.98 657.86 668.8 648.44 662.43 639.03 657.18 629.61 653.3 620.19 650.96 610.78 650.28 601.36 651.29 591.94 653.94 582.53 658.11 573.11 663.6 563.69 670.15 554.28 677.45 544.86 685.15 535.44 692.9 526.03 700.31 516.61 707.05 507.19 712.8 497.78 717.27 488.36 720.26 478.94 721.64 469.53 721.32 460.11 719.33 450.69 715.77 441.28 710.79 431.86 704.65 422.44 697.62 413.02 690.04 403.61 682.26 394.19 674.67 384.77 667.61 375.36 661.42 365.94 656.39 356.52 652.77 347.11 650.72 337.69 650.33 328.27 651.64 318.86 654.57 309.44 658.99 300.02 664.69 290.61 671.39 281.19 678.79 271.77 686.53 262.36 694.24 252.94 701.56 243.52 708.15 234.11 713.68 224.69 717.91 215.27 720.63 205.86 721.7 196.44 721.09 187.02 718.82 177.61 714.99 168.19 709.79 158.77 703.46 149.36 696.31 139.94 688.67 130.52 680.9 121.11 673.37 121.1 664.55 120.95 655.73 120.66 646.92 120.22 638.1 119.66 629.28 118.98 620.46 118.2 611.64 117.33 602.82 116.39 594 115.4 585.18 114.38 576.36 113.35 567.54 112.34 558.72 111.36 549.91 110.44 541.09 109.59 532.27 108.83 523.45 108.18 514.63 107.65 505.81 107.25 496.99 106.99 488.17 106.87 479.35 106.91 470.53 107.09 461.71 107.41 452.9 107.87 444.08 108.46 435.26 109.16 426.44 109.97 417.62 110.85 408.8 111.8 399.98 112.8 391.16 113.82 382.34 114.85 373.52 115.86 364.71 116.82 355.89 117.73 347.07 118.57 338.25 119.31 329.43 119.93 320.61 120.44 311.79 120.81 302.97 121.04 294.15 121.12 285.33 121.06 276.51 120.85 267.7 120.49 258.88 120.01 250.06 119.39 241.24 118.67 232.42 117.85 223.6 116.95 214.78 115.98 205.96 114.98 197.14 113.96 188.32 112.93 179.5 111.93 170.69 110.97 161.87 110.08 153.05 109.26 144.23 108.55 135.41 107.94 126.59 107.46 117.77 107.12 108.95" stroke-dasharray="5 9" transform="rotate(0, 400, 400)" opacity="0.05"></path><path d="M118.03 123.63Q134.38 129.7 150.74 134.96 167.09 138.49 183.44 139.68 199.8 138.33 216.15 134.67 232.51 129.33 248.86 123.25 265.21 117.46 281.57 112.98 297.92 110.58 314.27 110.68 330.63 113.25 346.98 117.86 363.34 123.71 379.69 129.77 396.04 135.01 412.4 138.52 428.75 139.68 445.1 138.3 461.46 134.62 477.81 129.27 494.17 123.18 510.52 117.4 526.87 112.94 543.23 110.57 559.58 110.69 575.93 113.3 592.29 117.93 608.64 123.78 625 129.84 641.35 135.07 647.03 152.69 654.84 170.32 664.2 187.95 674.38 205.58 684.6 223.21 694.09 240.84 702.13 258.47 708.09 276.1 711.52 293.73 712.17 311.36 709.98 328.99 705.11 346.62 697.95 364.25 689.03 381.88 679.04 399.51 668.75 417.14 658.93 434.76 650.33 452.39 643.62 470.02 639.31 487.65 637.72 505.28 638.98 522.91 642.98 540.54 649.44 558.17 657.84 575.8 667.55 593.43 677.83 611.06 687.9 628.69 696.98 646.32 704.38 663.95 701.74 684.11 675.85 672.07 657.74 658 639.63 646.87 621.53 640.61 603.42 640.31 585.32 646.01 567.21 656.74 549.1 670.62 531 685.26 512.89 698.13 494.79 706.98 476.68 710.3 458.57 707.51 440.47 699.08 422.36 686.48 404.26 671.9 386.15 657.85 368.05 646.77 349.94 640.57 331.83 640.34 313.73 646.11 295.62 656.89 277.52 670.79 259.41 685.43 241.3 698.26 223.2 707.06 205.09 710.3 186.99 707.44 168.88 698.95 150.77 686.32 132.67 671.72 132.15 654.59 131.08 637.47 129.55 620.34 127.67 603.21 125.58 586.08 123.45 568.96 121.44 551.83 119.7 534.7 118.37 517.57 117.54 500.44 117.28 483.32 117.61 466.19 118.5 449.06 119.89 431.93 121.67 414.81 123.7 397.68 125.83 380.55 127.9 363.42 129.75 346.29 131.23 329.17 132.24 312.04 132.69 294.91 132.56 277.78 131.85 260.66 130.61 243.53 128.95 226.4 126.98 209.27 124.87 192.14 122.76 175.02 120.82 157.89 119.2 140.76 118.03 123.63" stroke-dasharray="9 10" transform="rotate(4.04, 400, 400)" opacity="0.09"></path><path d="M129.24 138.63Q145.02 144.24 160.8 148.54 176.58 150.83 192.36 150.75 208.14 148.31 223.92 143.91 239.7 138.24 255.48 132.21 271.26 126.79 287.04 122.84 302.82 120.99 318.6 121.54 334.38 124.4 350.16 129.11 365.94 134.92 381.72 140.91 397.5 146.11 413.28 149.69 429.06 151.09 444.84 150.07 460.62 146.81 476.4 141.81 492.18 135.89 507.96 129.99 523.74 125.04 539.51 121.85 555.29 120.91 571.07 122.39 586.85 126.04 602.63 131.28 618.41 137.27 634.19 143.06 640.87 159.85 649.18 176.64 658.52 193.43 668.26 210.22 677.69 227.01 686.16 243.8 693.07 260.59 697.93 277.38 700.4 294.17 700.31 310.96 697.66 327.75 692.65 344.54 685.61 361.33 677.05 378.12 667.57 394.91 657.84 411.7 648.55 428.49 640.34 445.28 633.8 462.07 629.38 478.86 627.4 495.65 628 512.44 631.13 529.23 636.57 546.02 643.95 562.8 652.74 579.59 662.32 596.38 672.02 613.17 681.15 629.96 689.08 646.75 688.54 665.25 664.49 653.09 647.14 640.98 629.79 632.54 612.44 629.13 595.09 631.29 577.74 638.68 560.39 650.11 543.04 663.76 525.69 677.45 508.34 688.98 490.99 696.53 473.63 698.88 456.28 695.65 438.93 687.37 421.58 675.35 404.23 661.52 386.88 648.08 369.53 637.19 352.18 630.58 334.83 629.31 317.48 633.58 300.13 642.71 282.77 655.25 265.42 669.18 248.07 682.28 230.72 692.46 213.37 698.1 196.02 698.28 178.67 692.99 161.32 683.06 143.97 670.09 143.07 653.48 141.68 636.87 139.88 620.26 137.81 603.66 135.61 587.05 133.45 570.44 131.45 553.83 129.78 537.22 128.55 520.62 127.84 504.01 127.71 487.4 128.15 470.79 129.16 454.18 130.64 437.58 132.5 420.97 134.6 404.36 136.81 387.75 138.95 371.14 140.89 354.54 142.48 337.93 143.62 321.32 144.22 304.71 144.24 288.1 143.68 271.5 142.58 254.89 141.02 238.28 139.1 221.67 136.96 205.06 134.76 188.46 132.64 171.85 130.76 155.24 129.24 138.63" stroke-dasharray="1 2" transform="rotate(8.08, 400, 400)" opacity="0.13"></path><path d="M140.79 153.66Q156.01 158.44 171.24 161.54 186.46 162.5 201.68 161.19 216.9 157.79 232.12 152.8 247.34 146.97 262.56 141.13 277.78 136.16 293 132.78 308.22 131.49 323.44 132.47 338.66 135.59 353.88 140.39 369.1 146.15 384.32 152.04 399.54 157.19 414.76 160.84 429.98 162.45 445.2 161.8 460.42 158.97 475.64 154.38 490.87 148.71 506.09 142.78 521.31 137.47 536.53 133.57 551.75 131.63 566.97 131.95 582.19 134.48 597.41 138.85 612.63 144.42 627.85 150.36 635.2 166.3 643.7 182.25 652.8 198.19 661.91 214.13 670.45 230.07 677.85 246.01 683.65 261.95 687.47 277.89 689.06 293.83 688.31 309.78 685.28 325.72 680.16 341.66 673.28 357.6 665.09 373.54 656.12 389.48 646.94 405.42 638.16 421.36 630.34 437.31 623.98 453.25 619.5 469.19 617.19 485.13 617.19 501.07 619.51 517.01 624 532.95 630.36 548.89 638.18 564.84 646.97 580.78 656.14 596.72 665.11 612.66 673.3 628.6 674.44 645.91 652.14 634.9 635.57 625.18 619 619.55 602.42 618.84 585.85 623.14 569.28 631.83 552.71 643.63 536.13 656.8 519.56 669.42 502.99 679.62 486.41 685.91 469.84 687.37 453.27 683.77 436.7 675.66 420.12 664.21 403.55 651.12 386.98 638.3 370.4 627.65 353.83 620.71 337.26 618.52 320.69 621.39 304.11 628.91 287.54 639.96 270.97 652.93 254.39 665.91 237.82 676.99 221.25 684.55 204.68 687.47 188.1 685.32 171.53 678.43 154.96 667.8 153.7 651.74 152 635.67 149.98 619.6 147.77 603.53 145.51 587.47 143.34 571.4 141.41 555.33 139.84 539.27 138.74 523.2 138.17 507.13 138.17 491.06 138.74 475 139.84 458.93 141.41 442.86 143.34 426.8 145.5 410.73 147.76 394.66 149.98 378.59 152 362.53 153.69 346.46 154.96 330.39 155.7 314.33 155.89 298.26 155.5 282.19 154.55 266.12 153.12 250.06 151.3 233.99 149.19 217.92 146.95 201.86 144.7 185.79 142.61 169.72 140.79 153.66" stroke-dasharray="9 2" transform="rotate(12.12, 400, 400)" opacity="0.16"></path><path d="M152.69 168.4Q167.36 172.05 182.03 173.8 196.7 173.43 211.37 170.98 226.04 166.79 240.71 161.41 255.38 155.57 270.05 150.06 284.72 145.61 299.39 142.84 314.06 142.1 328.73 143.5 343.41 146.85 358.08 151.7 372.75 157.4 387.42 163.18 402.09 168.26 416.76 171.96 431.43 173.78 446.1 173.48 460.77 171.09 475.44 166.95 490.11 161.59 504.78 155.76 519.45 150.22 534.12 145.73 548.79 142.89 563.46 142.09 578.13 143.42 592.8 146.71 607.48 151.53 622.15 157.21 629.84 172.31 638.26 187.4 646.9 202.5 655.25 217.6 662.82 232.69 669.15 247.79 673.87 262.89 676.7 277.98 677.48 293.08 676.16 308.18 672.82 323.27 667.65 338.37 660.96 353.47 653.15 368.57 644.67 383.66 636.04 398.76 627.76 413.86 620.33 428.95 614.17 444.05 609.67 459.15 607.08 474.24 606.55 489.34 608.13 504.44 611.71 519.54 617.08 534.63 623.93 549.73 631.85 564.83 640.37 579.92 648.99 595.02 657.19 610.12 659.59 626.68 638.91 617.86 623.13 610.81 607.35 607.96 591.58 609.68 575.8 615.76 560.02 625.36 544.25 637.21 528.47 649.7 512.69 661.15 496.92 670.02 481.14 675.12 465.36 675.77 449.59 671.87 433.81 663.95 418.03 653.08 402.26 640.71 386.48 628.52 370.7 618.14 354.93 610.97 339.15 607.98 323.37 609.56 307.6 615.5 291.82 625.01 276.04 636.81 260.27 649.3 244.49 660.81 228.71 669.79 212.93 675.03 197.16 675.82 181.38 672.06 165.6 664.26 164.01 648.76 162.06 633.27 159.86 617.77 157.56 602.28 155.28 586.78 153.17 571.29 151.34 555.79 149.9 540.29 148.94 524.8 148.52 509.3 148.66 493.81 149.35 478.31 150.56 462.82 152.2 447.32 154.19 431.83 156.4 416.33 158.71 400.83 160.98 385.34 163.06 369.84 164.85 354.35 166.24 338.85 167.13 323.36 167.48 307.86 167.27 292.37 166.52 276.87 165.25 261.37 163.56 245.88 161.54 230.38 159.31 214.89 157 199.39 154.75 183.9 152.69 168.4" stroke-dasharray="9 4" transform="rotate(16.16, 400, 400)" opacity="0.20"></path><path d="M164.92 182.57Q179.05 184.87 193.17 185.23 207.29 183.59 221.42 180.16 235.54 175.37 249.67 169.79 263.79 164.11 277.91 159.03 292.04 155.18 306.16 153.02 320.29 152.82 334.41 154.61 348.53 158.16 362.66 163.04 376.78 168.65 390.91 174.31 405.03 179.31 419.16 183.05 433.28 185.06 447.4 185.1 461.53 183.16 475.65 179.49 489.78 174.53 503.9 168.88 518.02 163.26 532.15 158.33 546.27 154.72 560.4 152.85 574.52 152.97 588.64 155.06 602.77 158.85 616.89 163.89 624.64 178.16 632.74 192.43 640.74 206.7 648.21 220.96 654.76 235.23 660.02 249.5 663.72 263.77 665.64 278.04 665.7 292.31 663.89 306.57 660.3 320.84 655.13 335.11 648.65 349.38 641.22 363.65 633.24 377.92 625.14 392.18 617.36 406.45 610.31 420.72 604.37 434.99 599.88 449.26 597.06 463.53 596.08 477.8 596.98 492.06 599.72 506.33 604.14 520.6 610.02 534.87 617.02 549.14 624.78 563.41 632.88 577.67 640.88 591.94 644.12 608.15 624.93 602.28 609.96 597.98 594.99 597.74 580.02 601.58 565.05 609.03 550.09 619.17 535.12 630.77 520.15 642.39 505.18 652.62 490.22 660.19 475.25 664.18 460.28 664.09 445.31 659.95 430.34 652.25 415.38 641.95 400.41 630.29 385.44 618.73 370.47 608.67 355.5 601.35 340.54 597.67 325.57 598.08 310.6 602.52 295.63 610.47 280.66 620.93 265.7 632.62 250.73 644.12 235.76 654.01 220.79 661.07 205.82 664.44 190.86 663.71 175.89 658.96 174 644.07 171.85 629.18 169.54 614.3 167.2 599.41 164.96 584.52 162.94 569.63 161.24 554.75 159.96 539.86 159.17 524.97 158.91 510.09 159.2 495.2 160.01 480.31 161.31 465.42 163.02 450.54 165.06 435.65 167.3 420.76 169.64 405.88 171.95 390.99 174.09 376.1 175.96 361.21 177.46 346.33 178.49 331.44 179.02 316.55 179 301.66 178.44 286.78 177.38 271.89 175.86 257 173.97 242.12 171.81 227.23 169.5 212.34 167.16 197.45 164.92 182.57" stroke-dasharray="5 5" transform="rotate(20.200000000000003, 400, 400)" opacity="0.24"></path><path d="M177.47 195.88Q191.05 196.74 204.63 195.74 218.2 192.98 231.78 188.77 245.35 183.59 258.93 178 272.5 172.64 286.08 168.1 299.65 164.88 313.23 163.35 326.8 163.67 340.38 165.81 353.96 169.53 367.53 174.42 381.11 179.93 394.68 185.44 408.26 190.35 421.83 194.11 435.41 196.29 448.98 196.66 462.56 195.17 476.14 191.99 489.71 187.47 503.29 182.12 516.86 176.54 530.44 171.33 544.01 167.1 557.59 164.3 571.16 163.25 584.74 164.06 598.31 166.65 611.89 170.73 619.43 184.2 626.99 197.66 634.21 211.13 640.73 224.59 646.24 238.06 650.46 251.52 653.19 264.99 654.3 278.45 653.72 291.92 651.49 305.38 647.72 318.84 642.59 332.31 636.36 345.77 629.32 359.24 621.83 372.7 614.24 386.17 606.94 399.63 600.28 413.1 594.58 426.56 590.13 440.03 587.14 453.49 585.76 466.96 586.06 480.42 588.02 493.89 591.54 507.35 596.46 520.82 602.53 534.28 609.46 547.75 616.91 561.21 624.5 574.68 628.2 590.83 610.36 588.37 596.21 586.75 582.06 588.84 567.91 594.39 553.76 602.8 539.6 613.13 525.45 624.22 511.3 634.84 497.15 643.8 483 650.12 468.84 653.07 454.69 652.34 440.54 648.01 426.39 640.56 412.24 630.81 398.08 619.86 383.93 608.92 369.78 599.22 355.63 591.84 341.48 587.59 327.32 586.95 313.17 589.99 299.02 596.38 284.87 605.39 270.71 616.04 256.56 627.12 242.41 637.42 228.26 645.77 214.11 651.25 199.95 653.24 185.8 651.53 183.69 637.3 181.4 623.06 179.03 608.82 176.72 594.58 174.56 580.34 172.68 566.1 171.15 551.86 170.05 537.62 169.44 523.38 169.35 509.14 169.78 494.9 170.71 480.67 172.09 466.43 173.86 452.19 175.93 437.95 178.21 423.71 180.56 409.47 182.9 395.23 185.08 380.99 187.02 366.75 188.62 352.51 189.79 338.27 190.48 324.04 190.66 309.8 190.32 295.56 189.47 281.32 188.16 267.08 186.44 252.84 184.42 238.6 182.17 224.36 179.82 210.12 177.47 195.88" stroke-dasharray="4 10" transform="rotate(24.24, 400, 400)" opacity="0.28"></path><path d="M190.31 208.13Q203.33 207.56 216.35 205.32 229.37 201.64 242.39 196.88 255.41 191.54 268.43 186.14 281.45 181.23 294.47 177.3 307.49 174.75 320.51 173.83 333.53 174.65 346.55 177.1 359.57 180.96 372.59 185.83 385.6 191.21 398.62 196.58 411.64 201.38 424.66 205.14 437.68 207.47 450.7 208.15 463.72 207.1 476.74 204.42 489.76 200.4 502.78 195.43 515.8 190.02 528.82 184.7 541.84 180.01 554.86 176.43 567.88 174.32 580.9 173.89 593.92 175.17 606.94 178.05 614.03 190.75 620.89 203.44 627.23 216.13 632.76 228.82 637.24 241.52 640.47 254.21 642.31 266.9 642.68 279.6 641.56 292.29 638.99 304.98 635.1 317.68 630.06 330.37 624.08 343.06 617.44 355.76 610.42 368.45 603.34 381.14 596.51 393.84 590.23 406.53 584.78 419.22 580.41 431.91 577.29 444.61 575.58 457.3 575.35 469.99 576.6 482.69 579.29 495.38 583.29 508.07 588.43 520.77 594.48 533.46 601.16 546.15 608.2 558.85 612 575.13 595.39 576.26 582.06 577.09 568.73 581.14 555.39 587.98 542.06 596.95 528.72 607.12 515.39 617.48 502.05 626.99 488.72 634.69 475.38 639.8 462.05 641.81 448.71 640.52 435.38 636.05 422.05 628.87 408.71 619.68 395.38 609.41 382.04 599.11 368.71 589.8 355.37 582.42 342.04 577.71 328.7 576.16 315.37 577.91 302.04 582.79 288.7 590.3 275.37 599.7 262.03 610.03 248.7 620.26 235.36 629.36 222.03 636.4 208.69 640.69 195.36 641.78 193.09 628.23 190.73 614.68 188.38 601.13 186.15 587.58 184.13 574.03 182.41 560.48 181.07 546.92 180.18 533.37 179.76 519.82 179.84 506.27 180.41 492.72 181.45 479.17 182.91 465.61 184.73 452.06 186.83 438.51 189.11 424.96 191.47 411.41 193.81 397.86 196.03 384.3 198.03 370.75 199.71 357.2 201.01 343.65 201.87 330.1 202.24 316.55 202.12 302.99 201.51 289.44 200.43 275.89 198.93 262.34 197.09 248.79 194.97 235.24 192.68 221.68 190.31 208.13" stroke-dasharray="10 3" transform="rotate(28.28, 400, 400)" opacity="0.32"></path><path d="M203.37 219.17Q215.83 217.28 228.28 214.01 240.73 209.65 253.18 204.6 265.63 199.32 278.09 194.28 290.54 189.93 302.99 186.68 315.44 184.81 327.9 184.49 340.35 185.76 352.8 188.49 365.25 192.45 377.71 197.27 390.16 202.51 402.61 207.71 415.06 212.39 427.51 216.14 439.97 218.6 452.42 219.56 464.87 218.93 477.32 216.78 489.78 213.28 502.23 208.77 514.68 203.64 527.13 198.37 539.58 193.42 552.04 189.25 564.49 186.23 576.94 184.63 589.39 184.61 601.85 186.16 608.3 198.11 614.34 210.07 619.73 222.03 624.26 233.98 627.75 245.94 630.05 257.9 631.08 269.85 630.8 281.81 629.22 293.77 626.39 305.72 622.44 317.68 617.52 329.64 611.82 341.59 605.58 353.55 599.03 365.51 592.44 377.46 586.07 389.42 580.18 401.38 574.99 413.33 570.72 425.29 567.53 437.25 565.55 449.2 564.85 461.16 565.48 473.12 567.39 485.08 570.52 497.03 574.74 508.99 579.89 520.95 585.75 532.9 592.1 544.86 595.7 561.37 580.2 565.96 567.68 568.9 555.16 574.47 542.64 582.17 530.12 591.3 517.6 601.03 505.08 610.49 492.56 618.82 480.04 625.27 467.52 629.25 455 630.4 442.47 628.63 429.95 624.08 417.43 617.18 404.91 608.54 392.39 598.95 379.87 589.27 367.35 580.38 354.83 573.09 342.31 568.04 329.79 565.7 317.27 566.29 304.75 569.74 292.23 575.74 279.71 583.76 267.19 593.06 254.67 602.81 242.15 612.12 229.63 620.16 209.67 621.52 199.89 604.02 197.61 591.19 195.52 578.36 193.68 565.54 192.17 552.71 191.05 539.88 190.36 527.05 190.14 514.22 190.39 501.39 191.09 488.56 192.24 475.74 193.76 462.91 195.62 450.08 197.73 437.25 200.01 424.42 202.36 411.59 204.71 398.77 206.94 385.94 208.98 373.11 210.74 360.28 212.16 347.45 213.17 334.62 213.73 321.79 213.83 308.97 213.46 296.14 212.64 283.31 211.39 270.48 209.77 257.65 207.84 244.82 205.68 232 203.37 219.17" stroke-dasharray="1 4" transform="rotate(32.32, 400, 400)" opacity="0.35"></path><path d="M216.6 228.93Q228.47 225.94 240.34 221.9 252.21 217.15 264.08 212.06 275.95 207.04 287.82 202.51 299.69 198.82 311.56 196.28 323.43 195.09 335.3 195.34 347.17 197.01 359.03 199.98 370.9 204 382.77 208.74 394.64 213.83 406.51 218.85 418.38 223.39 430.25 227.1 442.12 229.67 453.99 230.89 465.86 230.67 477.73 229.02 489.6 226.08 501.47 222.08 513.34 217.35 525.21 212.27 537.08 207.24 548.95 202.68 560.82 198.96 572.69 196.36 584.55 195.11 596.42 195.3 602.1 206.55 607.23 217.81 611.65 229.07 615.2 240.32 617.74 251.58 619.2 262.84 619.52 274.09 618.68 285.35 616.72 296.6 613.71 307.86 609.75 319.12 604.99 330.37 599.58 341.63 593.74 352.89 587.65 364.14 581.54 375.4 575.62 386.65 570.11 397.91 565.19 409.17 561.05 420.42 557.82 431.68 555.63 442.94 554.56 454.19 554.63 465.45 555.84 476.71 558.16 487.96 561.51 499.22 565.75 510.47 570.75 521.73 576.32 532.99 579.48 549.7 564.96 557.39 553.25 562.01 541.54 568.64 529.82 576.76 518.11 585.7 506.39 594.75 494.68 603.17 482.96 610.29 471.25 615.52 459.53 618.46 447.82 618.85 436.1 616.67 424.39 612.1 412.68 605.5 400.96 597.41 389.25 588.48 377.53 579.42 365.82 570.98 354.1 563.83 342.39 558.55 330.67 555.57 318.96 555.12 307.25 557.25 295.53 561.77 283.82 568.33 272.1 576.4 260.39 585.33 248.67 594.38 236.96 602.84 218.22 606.65 208.91 591.2 206.78 579.12 204.87 567.05 203.25 554.97 201.97 542.9 201.08 530.82 200.62 518.74 200.59 506.67 201 494.59 201.84 482.52 203.07 470.44 204.66 458.37 206.54 446.29 208.65 434.21 210.91 422.14 213.24 410.06 215.57 397.99 217.81 385.91 219.88 373.84 221.7 361.76 223.21 349.68 224.36 337.61 225.11 325.53 225.43 313.46 225.31 301.38 224.75 289.31 223.78 277.23 222.42 265.15 220.73 253.08 218.77 241 216.6 228.93" stroke-dasharray="9 9" transform="rotate(36.36, 400, 400)" opacity="0.39"></path><path d="M229.92 237.45Q241.18 233.64 252.45 229.14 263.72 224.27 274.99 219.38 286.26 214.83 297.53 210.92 308.8 207.96 320.06 206.14 331.33 205.6 342.6 206.38 353.87 208.41 365.14 211.56 376.41 215.6 387.67 220.24 398.94 225.15 410.21 229.98 421.48 234.38 432.75 238.03 444.02 240.68 455.29 242.14 466.55 242.3 477.82 241.15 489.09 238.77 500.36 235.33 511.63 231.09 522.9 226.33 534.16 221.41 545.43 216.67 556.7 212.46 567.97 209.07 579.24 206.75 590.51 205.67 595.3 216.26 599.5 226.85 602.95 237.43 605.56 248.02 607.24 258.61 607.94 269.2 607.63 279.79 606.33 290.38 604.08 300.97 600.95 311.56 597.04 322.15 592.46 332.74 587.37 343.33 581.92 353.91 576.28 364.5 570.64 375.09 565.16 385.68 560.02 396.27 555.39 406.86 551.4 417.45 548.18 428.04 545.84 438.63 544.45 449.22 544.04 459.81 544.64 470.39 546.22 480.98 548.74 491.57 552.11 502.16 556.23 512.75 560.97 523.34 563.49 540.16 549.87 550.37 538.95 556.19 528.03 563.42 517.11 571.56 506.19 580.01 495.27 588.17 484.34 595.47 473.42 601.37 462.5 605.45 451.58 607.43 440.66 607.16 429.74 604.66 418.82 600.11 407.9 593.83 396.98 586.27 386.06 577.99 375.14 569.55 364.22 561.58 353.3 554.64 342.38 549.23 331.45 545.74 320.53 544.4 309.61 545.33 298.69 548.46 287.77 553.55 276.85 560.25 265.93 568.07 255.01 576.47 244.09 584.82 226.58 590.17 217.87 576.49 215.93 565.19 214.25 553.89 212.87 542.59 211.85 531.29 211.2 519.98 210.96 508.68 211.12 497.38 211.69 486.08 212.65 474.78 213.96 463.48 215.59 452.17 217.48 440.87 219.57 429.57 221.81 418.27 224.11 406.97 226.41 395.67 228.64 384.37 230.71 373.06 232.58 361.76 234.18 350.46 235.46 339.16 236.37 327.86 236.9 316.56 237.03 305.25 236.74 293.95 236.06 282.65 234.99 271.35 233.58 260.05 231.87 248.75 229.92 237.45" stroke-dasharray="6 3" transform="rotate(40.400000000000006, 400, 400)" opacity="0.43"></path><path d="M243.23 244.85Q253.88 240.55 264.53 235.91 275.17 231.2 285.82 226.73 296.47 222.79 307.12 219.61 317.76 217.4 328.41 216.3 339.06 216.37 349.7 217.62 360.35 219.96 371 223.24 381.65 227.27 392.29 231.78 402.94 236.49 413.59 241.11 424.24 245.35 434.88 248.93 445.53 251.64 456.18 253.3 466.83 253.8 477.47 253.13 488.12 251.31 498.77 248.47 509.42 244.77 520.06 240.47 530.71 235.81 541.36 231.11 552.01 226.65 562.65 222.72 580.56 223.44 591.07 237.27 593.6 247.22 595.34 257.17 596.24 267.12 596.27 277.07 595.45 287.02 593.78 296.97 591.32 306.92 588.13 316.87 584.31 326.82 579.95 336.77 575.18 346.72 570.12 356.67 564.93 366.62 559.74 376.57 554.69 386.52 549.93 396.47 545.58 406.42 541.77 416.37 538.6 426.32 536.16 436.27 534.51 446.22 533.71 456.17 533.77 466.12 534.69 476.07 536.45 486.02 538.99 495.97 542.26 505.92 546.15 515.87 547.89 532.61 535.08 544.64 524.94 551.16 514.8 558.55 504.66 566.35 494.52 574.06 484.37 581.2 474.23 587.33 464.09 592.04 453.95 595.06 443.8 596.18 433.66 595.34 423.52 592.59 413.38 588.1 403.23 582.16 393.09 575.14 382.95 567.48 372.81 559.67 362.66 552.19 352.52 545.51 342.38 540.06 332.24 536.18 322.09 534.12 311.95 534 301.81 535.82 291.67 539.49 281.52 544.76 271.38 551.3 261.24 558.7 251.1 566.5 234.84 572.52 226.8 560.31 225.11 549.79 223.7 539.28 222.59 528.76 221.83 518.24 221.42 507.73 221.4 497.21 221.75 486.7 222.46 476.18 223.52 465.67 224.9 455.15 226.56 444.64 228.45 434.12 230.52 423.61 232.71 413.09 234.97 402.58 237.22 392.06 239.42 381.55 241.49 371.03 243.39 360.52 245.05 350 246.43 339.49 247.5 328.97 248.23 318.46 248.59 307.94 248.57 297.43 248.18 286.91 247.42 276.4 246.33 265.88 244.92 255.37 243.23 244.85" stroke-dasharray="11 6" transform="rotate(44.44, 400, 400)" opacity="0.47"></path><path d="M256.45 251.37Q266.46 246.93 276.46 242.43 286.47 238.14 296.47 234.27 306.48 231.05 316.49 228.65 326.49 227.2 336.5 226.78 346.5 227.41 356.51 229.06 366.51 231.65 376.52 235.02 386.52 238.99 396.53 243.35 406.53 247.85 416.54 252.25 426.55 256.31 436.55 259.8 446.56 262.53 456.56 264.36 466.57 265.18 476.57 264.95 486.58 263.67 496.58 261.43 506.59 258.34 516.59 254.58 526.6 250.34 536.6 245.86 546.61 241.4 556.62 237.18 573.1 236.59 581.92 249.07 583.58 258.4 584.54 267.73 584.76 277.07 584.24 286.4 582.99 295.73 581.04 305.06 578.45 314.39 575.27 323.73 571.57 333.06 567.45 342.39 563.01 351.72 558.35 361.06 553.59 370.39 548.84 379.72 544.21 389.05 539.81 398.39 535.76 407.72 532.15 417.05 529.06 426.38 526.57 435.71 524.74 445.05 523.61 454.38 523.22 463.71 523.56 473.04 524.64 482.38 526.42 491.71 528.87 501.04 531.92 510.37 532.83 526.81 520.77 539.88 511.38 546.63 502 553.79 492.62 560.95 483.24 567.73 473.86 573.76 464.47 578.71 455.09 582.29 445.71 584.33 436.33 584.7 426.95 583.39 417.57 580.47 408.18 576.09 398.8 570.5 389.42 564.01 380.04 556.96 370.66 549.76 361.27 542.78 351.89 536.42 342.51 531.03 333.13 526.89 323.75 524.25 314.37 523.23 304.98 523.9 295.6 526.22 286.22 530.07 276.84 535.23 267.46 541.42 258.07 548.29 238.73 543.8 233.25 523.69 232.43 513.96 231.93 504.24 231.77 494.51 231.96 484.79 232.48 475.06 233.32 465.34 234.47 455.61 235.9 445.88 237.57 436.16 239.44 426.43 241.47 416.71 243.61 406.98 245.81 397.25 248.01 387.53 250.16 377.8 252.21 368.08 254.12 358.35 255.82 348.63 257.3 338.9 258.49 329.17 259.39 319.45 259.97 309.72 260.21 300 260.11 290.27 259.67 280.54 258.9 270.82 257.82 261.09 256.45 251.37" stroke-dasharray="6 10" transform="rotate(48.48, 400, 400)" opacity="0.51"></path><path d="M269.49 257.29Q278.83 253.03 288.17 248.97 297.52 245.28 306.86 242.15 316.2 239.72 325.54 238.11 334.89 237.39 344.23 237.6 353.57 238.73 362.92 240.72 372.26 243.49 381.6 246.89 390.94 250.77 400.29 254.94 409.63 259.22 418.97 263.38 428.31 267.25 437.66 270.63 447 273.36 456.34 275.32 465.68 276.41 475.03 276.59 484.37 275.83 493.71 274.19 503.06 271.73 512.4 268.57 521.74 264.87 531.08 260.79 540.43 256.53 549.77 252.3 564.82 250.85 572.01 262.14 572.87 279.59 571.85 297.05 570.28 305.78 568.14 314.5 565.49 323.23 562.36 331.96 558.83 340.69 554.98 349.41 550.87 358.14 546.61 366.87 542.26 375.6 537.93 384.32 533.71 393.05 529.68 401.78 525.93 410.51 522.53 419.23 519.55 427.96 517.06 436.69 515.11 445.42 513.74 454.14 513.14 471.6 514.41 489.05 516.1 497.78 518.35 506.51 518.4 522.38 507.05 535.73 498.41 542.28 489.77 548.86 481.13 555.16 472.49 560.89 463.84 565.77 455.2 569.58 437.92 572.57 420.64 571.33 412 568.3 403.36 564.07 394.72 558.85 386.08 552.87 377.44 546.43 368.8 539.82 360.16 533.37 351.52 527.37 342.88 522.11 334.24 517.84 316.96 513.72 299.68 513.8 291.04 516.29 282.4 520.04 273.76 524.89 265.11 530.58 247.58 526.15 242.97 507.68 242.43 498.73 242.19 489.79 242.26 480.85 242.64 471.91 243.31 462.96 244.27 454.02 245.49 445.08 246.95 436.14 248.62 427.19 250.46 418.25 252.44 409.31 254.51 400.37 256.64 391.42 258.77 382.48 260.86 373.54 262.88 364.6 264.77 355.65 266.5 346.71 268.03 337.77 269.34 328.83 270.39 319.88 271.16 310.94 271.63 302 271.81 293.06 271.67 284.11 271.24 275.17 270.5 266.23 269.49 257.29" stroke-dasharray="2 0" transform="rotate(52.52, 400, 400)" opacity="0.54"></path><path d="M282.24 262.97Q299.56 255.77 316.89 250.52 334.21 248.07 351.53 248.8 368.85 252.59 386.17 258.85 403.49 266.57 420.81 274.52 438.13 281.42 455.45 286.18 472.77 288.03 490.09 286.69 507.41 282.35 524.73 275.72 542.05 267.86 559.37 260.02 561.36 276.27 561.29 292.52 559.15 308.78 555.11 325.03 549.43 341.29 542.53 357.54 534.88 373.79 527.03 390.05 519.54 406.3 512.91 422.55 507.64 438.81 504.07 455.06 502.48 471.32 502.96 487.57 505.48 503.82 509.88 520.08 494.04 531.79 478.2 543.54 462.36 553.44 446.53 559.92 430.69 561.93 414.85 559.16 399.02 552.05 383.18 541.74 367.34 529.87 351.5 518.34 335.67 508.99 319.83 503.32 303.99 502.23 288.16 505.89 272.32 513.73 256.48 524.49 254.19 508.14 252.88 491.8 252.63 475.45 253.46 459.11 255.32 442.76 258.06 426.42 261.51 410.07 265.41 393.73 269.5 377.38 273.48 361.04 277.07 344.69 280.02 328.35 282.13 312 283.24 295.66 283.28 279.31 282.24 262.97" stroke-dasharray="7 4" transform="rotate(56.56, 400, 400)" opacity="0.58"></path><path d="M294.63 268.8Q310.55 263.09 326.47 259.52 342.39 258.57 358.31 260.37 374.23 264.67 390.15 270.9 406.07 278.23 421.99 285.65 437.91 292.18 453.83 296.94 469.75 299.28 485.67 298.89 501.59 295.83 517.51 290.5 533.43 283.62 549.35 276.12 549.98 291.17 548.9 306.21 546.17 321.26 541.95 336.3 536.49 351.35 530.1 366.39 523.18 381.44 516.13 396.48 509.37 411.53 503.3 426.57 498.27 441.62 494.59 456.66 492.47 471.71 492.05 486.75 493.33 501.8 496.26 516.85 481.83 527.67 467.39 537.6 452.96 545.29 438.53 549.71 424.1 550.27 409.67 546.89 395.24 540.03 380.8 530.6 366.37 519.89 351.94 509.32 337.51 500.32 323.08 494.1 308.65 491.51 294.21 492.88 279.78 498.03 265.35 506.28 263.74 491.43 263.03 476.59 263.26 461.75 264.43 446.91 266.46 432.06 269.23 417.22 272.58 402.38 276.31 387.54 280.2 372.69 284.02 357.85 287.54 343.01 290.55 328.17 292.88 313.32 294.39 298.48 294.98 283.64 294.63 268.8" stroke-dasharray="9 8" transform="rotate(60.599999999999994, 400, 400)" opacity="0.62"></path><path d="M306.57 275.17Q321.06 271.16 335.55 269.25 350.04 269.65 364.53 272.32 379.02 276.95 393.5 283.05 407.99 289.91 422.48 296.79 436.97 302.9 451.46 307.58 465.95 310.3 480.44 310.76 494.92 308.91 509.41 304.94 530.91 302.89 536.07 320.28 532.95 334.09 528.7 347.91 523.54 361.72 517.71 375.54 511.51 389.35 505.23 403.17 499.19 416.99 493.67 430.8 488.96 444.62 485.27 458.43 482.8 472.25 481.66 486.06 481.9 499.88 483.52 513.69 470.46 523 457.4 530.85 444.34 536.38 431.28 538.97 418.22 538.33 405.16 534.54 392.09 528.01 379.03 519.47 365.97 509.88 352.91 500.3 339.85 491.8 326.79 485.33 313.73 481.61 300.66 481.05 280.6 479.82 273.45 462.54 274.12 449.16 275.56 435.77 277.71 422.39 280.47 409 283.69 395.62 287.21 382.24 290.88 368.85 294.5 355.47 297.9 342.09 300.92 328.7 303.39 315.32 305.22 301.93 306.29 288.55 306.57 275.17" stroke-dasharray="11 5" transform="rotate(64.64, 400, 400)" opacity="0.66"></path><path d="M318 282.44Q331.03 280.18 344.07 279.8 357.1 281.33 370.13 284.64 383.17 289.43 396.2 295.27 409.23 301.62 422.27 307.92 435.3 313.59 448.33 318.12 461.37 321.11 474.4 322.27 487.43 321.51 500.47 318.9 519.35 318.21 522.83 334.31 519.52 346.86 515.38 359.41 510.6 371.97 505.36 384.52 499.86 397.08 494.33 409.63 488.99 422.18 484.04 434.74 479.68 447.29 476.1 459.85 473.42 472.4 471.76 484.95 471.17 497.51 471.7 510.06 459.98 517.44 448.25 523.14 436.53 526.67 424.81 527.69 413.09 526.12 401.36 522.1 389.64 515.98 377.92 508.33 366.2 499.84 354.47 491.27 342.75 483.4 331.03 476.94 319.31 472.47 307.58 470.4 289.84 466.46 284.18 450.03 285.2 438.06 286.86 426.09 289.07 414.12 291.76 402.15 294.81 390.18 298.12 378.21 301.53 366.24 304.92 354.27 308.16 342.3 311.12 330.32 313.67 318.35 315.71 306.38 317.18 294.41 318 282.44" stroke-dasharray="1 11" transform="rotate(68.68, 400, 400)" opacity="0.70"></path><path d="M328.86 290.94Q340.42 290.3 351.99 291.22 363.55 293.62 375.11 297.33 386.67 302.1 398.23 307.57 409.79 313.36 421.35 319.05 432.91 324.24 444.48 328.55 456.04 331.68 467.6 333.4 479.16 333.58 490.72 332.22 507.1 333.02 509.26 347.88 505.92 359.13 502.02 370.38 497.68 381.64 493.04 392.89 488.24 404.15 483.43 415.4 478.76 426.65 474.39 437.91 470.44 449.16 467.04 460.42 464.3 471.67 462.3 482.93 461.11 494.18 460.77 505.43 450.36 510.72 439.95 514.38 429.54 516.15 419.13 515.9 408.72 513.66 398.32 509.59 387.91 503.97 377.5 497.2 367.09 489.78 356.68 482.23 346.27 475.09 335.86 468.87 325.45 464.03 315.05 460.9 299.54 454.82 295.23 439.34 296.53 428.74 298.32 418.14 300.54 407.54 303.12 396.94 305.97 386.34 309.02 375.74 312.15 365.14 315.29 354.54 318.32 343.94 321.15 333.34 323.69 322.74 325.87 312.14 327.61 301.54 328.86 290.94" stroke-dasharray="2 1" transform="rotate(72.72, 400, 400)" opacity="0.73"></path><path d="M339.13 300.89Q349.21 301.62 359.29 303.52 369.37 306.49 379.45 310.37 389.53 314.94 399.61 319.95 409.69 325.13 419.77 330.19 429.85 334.85 439.93 338.87 450.01 342.02 460.09 344.12 470.17 345.06 480.25 344.79 494.24 347 495.41 360.58 492.21 370.49 488.64 380.41 484.8 390.32 480.77 400.24 476.64 410.15 472.53 420.07 468.52 429.98 464.72 439.9 461.21 449.81 458.08 459.73 455.41 469.64 453.26 479.56 446.63 496.06 432.47 504.48 423.36 504.82 414.24 503.63 405.13 500.98 396.01 497.02 386.9 491.95 377.78 486.07 368.67 479.68 359.56 473.15 350.44 466.83 341.33 461.07 332.21 456.18 323.1 452.44 309.76 444.94 306.63 430.59 308.12 421.32 309.96 412.06 312.12 402.79 314.53 393.53 317.16 384.27 319.92 375 322.75 365.74 325.59 356.47 328.37 347.21 331.02 337.95 333.48 328.68 335.68 319.42 337.58 310.15 339.13 300.89" stroke-dasharray="4 3" transform="rotate(76.76, 400, 400)" opacity="0.77"></path><path d="M348.79 312.43Q365.99 316.69 383.18 323.72 400.37 332.39 417.57 341.32 434.76 349.08 451.95 354.43 469.14 356.51 486.34 354.99 481.34 372.07 475.26 389.15 468.54 406.22 461.63 423.3 455.03 440.38 449.2 457.45 444.56 474.53 441.42 491.61 425.76 493.46 410.09 490.92 394.43 484.39 378.77 474.93 363.1 464.04 347.44 453.46 331.78 444.89 316.11 439.69 318.4 423.78 321.78 407.87 326.02 391.96 330.82 376.06 335.84 360.15 340.74 344.24 345.16 328.33 348.79 312.43" stroke-dasharray="9 6" transform="rotate(80.80000000000001, 400, 400)" opacity="0.81"></path><path d="M357.86 325.57Q372.1 330.67 386.34 337.36 400.57 344.9 414.81 352.46 429.05 359.18 443.28 364.32 457.52 367.31 471.75 367.81 467.13 382.08 461.91 396.34 456.35 410.6 450.73 424.87 445.31 439.13 440.37 453.39 436.15 467.65 432.84 481.92 419.74 481.32 406.63 477.8 393.52 471.73 380.42 463.8 367.31 454.89 354.2 445.99 341.1 438.09 327.99 432.08 330.52 418.76 333.77 405.45 337.56 392.14 341.72 378.82 346.04 365.51 350.3 352.2 354.31 338.88 357.86 325.57" stroke-dasharray="0 1" transform="rotate(84.84, 400, 400)" opacity="0.85"></path><path d="M366.37 340.22Q377.67 345.35 388.98 351.24 400.28 357.47 411.59 363.59 422.89 369.17 434.2 373.81 449.17 383.8 448.6 401.84 444.22 413.24 439.83 424.65 435.57 436.06 431.57 447.46 421.14 463.52 403.77 464.33 393.23 459.03 382.68 452.66 372.14 445.67 361.59 438.56 351.05 431.84 340.5 425.99 343.01 415.27 345.93 404.55 349.17 393.82 352.62 383.1 356.18 372.38 359.73 361.66 363.16 350.94 366.37 340.22" stroke-dasharray="9 5" transform="rotate(88.88, 400, 400)" opacity="0.89"></path><path d="M374.37 356.16Q391.19 365.31 408 374.72 424.82 382.91 441.63 388.55 435.36 405.61 428.93 422.67 422.78 439.73 417.34 456.79 401.42 450.57 385.49 441.53 369.56 431.13 353.63 421.03 358.27 404.81 363.52 388.59 369.02 372.38 374.37 356.16" stroke-dasharray="1 1" transform="rotate(92.92, 400, 400)" opacity="0.92"></path><path d="M381.95 373.07Q393.06 379.52 404.17 385.86 415.27 391.64 426.38 396.44 422.21 407.75 418.03 419.07 406.71 433.48 388.75 430.4 378.05 423.62 367.34 416.73 370.77 405.82 374.42 394.9 378.19 383.98 381.95 373.07" stroke-dasharray="0 2" transform="rotate(96.96, 400, 400)" opacity="0.96"></path></g></svg>