<?xml version="1.0" standalone="no"?>
<svg xmlns:xlink="http://www.w3.org/1999/xlink" id="wave" style="transform:rotate(0deg); transition: 0.3s" viewBox="0 0 1440 490" version="1.1" xmlns="http://www.w3.org/2000/svg"><defs><linearGradient id="sw-gradient-0" x1="0" x2="0" y1="1" y2="0"><stop stop-color="rgba(243, 106, 62, 1)" offset="0%"/><stop stop-color="rgba(255, 179, 11, 1)" offset="100%"/></linearGradient></defs><path style="transform:translate(0, 0px); opacity:1" fill="url(#sw-gradient-0)" d="M0,98L30,114.3C60,131,120,163,180,187.8C240,212,300,229,360,212.3C420,196,480,147,540,179.7C600,212,660,327,720,359.3C780,392,840,343,900,326.7C960,310,1020,327,1080,310.3C1140,294,1200,245,1260,212.3C1320,180,1380,163,1440,171.5C1500,180,1560,212,1620,220.5C1680,229,1740,212,1800,212.3C1860,212,1920,229,1980,261.3C2040,294,2100,343,2160,318.5C2220,294,2280,196,2340,196C2400,196,2460,294,2520,285.8C2580,278,2640,163,2700,155.2C2760,147,2820,245,2880,253.2C2940,261,3000,180,3060,196C3120,212,3180,327,3240,383.8C3300,441,3360,441,3420,432.8C3480,425,3540,408,3600,351.2C3660,294,3720,196,3780,147C3840,98,3900,98,3960,130.7C4020,163,4080,229,4140,220.5C4200,212,4260,131,4290,89.8L4320,49L4320,490L4290,490C4260,490,4200,490,4140,490C4080,490,4020,490,3960,490C3900,490,3840,490,3780,490C3720,490,3660,490,3600,490C3540,490,3480,490,3420,490C3360,490,3300,490,3240,490C3180,490,3120,490,3060,490C3000,490,2940,490,2880,490C2820,490,2760,490,2700,490C2640,490,2580,490,2520,490C2460,490,2400,490,2340,490C2280,490,2220,490,2160,490C2100,490,2040,490,1980,490C1920,490,1860,490,1800,490C1740,490,1680,490,1620,490C1560,490,1500,490,1440,490C1380,490,1320,490,1260,490C1200,490,1140,490,1080,490C1020,490,960,490,900,490C840,490,780,490,720,490C660,490,600,490,540,490C480,490,420,490,360,490C300,490,240,490,180,490C120,490,60,490,30,490L0,490Z"/><defs><linearGradient id="sw-gradient-1" x1="0" x2="0" y1="1" y2="0"><stop stop-color="rgba(243, 106, 62, 1)" offset="0%"/><stop stop-color="rgba(255, 179, 11, 1)" offset="100%"/></linearGradient></defs><path style="transform:translate(0, 50px); opacity:0.9" fill="url(#sw-gradient-1)" d="M0,196L30,171.5C60,147,120,98,180,138.8C240,180,300,310,360,351.2C420,392,480,343,540,277.7C600,212,660,131,720,147C780,163,840,278,900,285.8C960,294,1020,196,1080,130.7C1140,65,1200,33,1260,65.3C1320,98,1380,196,1440,269.5C1500,343,1560,392,1620,375.7C1680,359,1740,278,1800,228.7C1860,180,1920,163,1980,163.3C2040,163,2100,180,2160,212.3C2220,245,2280,294,2340,294C2400,294,2460,245,2520,187.8C2580,131,2640,65,2700,73.5C2760,82,2820,163,2880,187.8C2940,212,3000,180,3060,163.3C3120,147,3180,147,3240,179.7C3300,212,3360,278,3420,326.7C3480,376,3540,408,3600,367.5C3660,327,3720,212,3780,147C3840,82,3900,65,3960,57.2C4020,49,4080,49,4140,106.2C4200,163,4260,278,4290,334.8L4320,392L4320,490L4290,490C4260,490,4200,490,4140,490C4080,490,4020,490,3960,490C3900,490,3840,490,3780,490C3720,490,3660,490,3600,490C3540,490,3480,490,3420,490C3360,490,3300,490,3240,490C3180,490,3120,490,3060,490C3000,490,2940,490,2880,490C2820,490,2760,490,2700,490C2640,490,2580,490,2520,490C2460,490,2400,490,2340,490C2280,490,2220,490,2160,490C2100,490,2040,490,1980,490C1920,490,1860,490,1800,490C1740,490,1680,490,1620,490C1560,490,1500,490,1440,490C1380,490,1320,490,1260,490C1200,490,1140,490,1080,490C1020,490,960,490,900,490C840,490,780,490,720,490C660,490,600,490,540,490C480,490,420,490,360,490C300,490,240,490,180,490C120,490,60,490,30,490L0,490Z"/><defs><linearGradient id="sw-gradient-2" x1="0" x2="0" y1="1" y2="0"><stop stop-color="rgba(243, 106, 62, 1)" offset="0%"/><stop stop-color="rgba(255, 179, 11, 1)" offset="100%"/></linearGradient></defs><path style="transform:translate(0, 100px); opacity:0.8" fill="url(#sw-gradient-2)" d="M0,0L30,16.3C60,33,120,65,180,122.5C240,180,300,261,360,277.7C420,294,480,245,540,220.5C600,196,660,196,720,171.5C780,147,840,98,900,138.8C960,180,1020,310,1080,326.7C1140,343,1200,245,1260,228.7C1320,212,1380,278,1440,269.5C1500,261,1560,180,1620,179.7C1680,180,1740,261,1800,261.3C1860,261,1920,180,1980,196C2040,212,2100,327,2160,310.3C2220,294,2280,147,2340,147C2400,147,2460,294,2520,310.3C2580,327,2640,212,2700,147C2760,82,2820,65,2880,65.3C2940,65,3000,82,3060,98C3120,114,3180,131,3240,147C3300,163,3360,180,3420,196C3480,212,3540,229,3600,253.2C3660,278,3720,310,3780,277.7C3840,245,3900,147,3960,147C4020,147,4080,245,4140,294C4200,343,4260,343,4290,343L4320,343L4320,490L4290,490C4260,490,4200,490,4140,490C4080,490,4020,490,3960,490C3900,490,3840,490,3780,490C3720,490,3660,490,3600,490C3540,490,3480,490,3420,490C3360,490,3300,490,3240,490C3180,490,3120,490,3060,490C3000,490,2940,490,2880,490C2820,490,2760,490,2700,490C2640,490,2580,490,2520,490C2460,490,2400,490,2340,490C2280,490,2220,490,2160,490C2100,490,2040,490,1980,490C1920,490,1860,490,1800,490C1740,490,1680,490,1620,490C1560,490,1500,490,1440,490C1380,490,1320,490,1260,490C1200,490,1140,490,1080,490C1020,490,960,490,900,490C840,490,780,490,720,490C660,490,600,490,540,490C480,490,420,490,360,490C300,490,240,490,180,490C120,490,60,490,30,490L0,490Z"/><defs><linearGradient id="sw-gradient-3" x1="0" x2="0" y1="1" y2="0"><stop stop-color="rgba(243, 106, 62, 1)" offset="0%"/><stop stop-color="rgba(255, 179, 11, 1)" offset="100%"/></linearGradient></defs><path style="transform:translate(0, 150px); opacity:0.7" fill="url(#sw-gradient-3)" d="M0,196L30,212.3C60,229,120,261,180,261.3C240,261,300,229,360,236.8C420,245,480,294,540,277.7C600,261,660,180,720,155.2C780,131,840,163,900,163.3C960,163,1020,131,1080,114.3C1140,98,1200,98,1260,147C1320,196,1380,294,1440,343C1500,392,1560,392,1620,351.2C1680,310,1740,229,1800,171.5C1860,114,1920,82,1980,73.5C2040,65,2100,82,2160,98C2220,114,2280,131,2340,179.7C2400,229,2460,310,2520,294C2580,278,2640,163,2700,98C2760,33,2820,16,2880,24.5C2940,33,3000,65,3060,138.8C3120,212,3180,327,3240,310.3C3300,294,3360,147,3420,106.2C3480,65,3540,131,3600,155.2C3660,180,3720,163,3780,179.7C3840,196,3900,245,3960,228.7C4020,212,4080,131,4140,138.8C4200,147,4260,245,4290,294L4320,343L4320,490L4290,490C4260,490,4200,490,4140,490C4080,490,4020,490,3960,490C3900,490,3840,490,3780,490C3720,490,3660,490,3600,490C3540,490,3480,490,3420,490C3360,490,3300,490,3240,490C3180,490,3120,490,3060,490C3000,490,2940,490,2880,490C2820,490,2760,490,2700,490C2640,490,2580,490,2520,490C2460,490,2400,490,2340,490C2280,490,2220,490,2160,490C2100,490,2040,490,1980,490C1920,490,1860,490,1800,490C1740,490,1680,490,1620,490C1560,490,1500,490,1440,490C1380,490,1320,490,1260,490C1200,490,1140,490,1080,490C1020,490,960,490,900,490C840,490,780,490,720,490C660,490,600,490,540,490C480,490,420,490,360,490C300,490,240,490,180,490C120,490,60,490,30,490L0,490Z"/></svg>