<svg xmlns="http://www.w3.org/2000/svg" version="1.1" xmlns:xlink="http://www.w3.org/1999/xlink" xmlns:svgjs="http://svgjs.dev/svgjs" viewBox="0 0 2400 800" opacity="1"><defs><linearGradient x1="50%" y1="0%" x2="50%" y2="100%" id="sssurf-grad"><stop stop-color="hsl(30, 100%, 50%)" stop-opacity="1" offset="0%"></stop><stop stop-color="hsl(30, 100%, 70%)" stop-opacity="1" offset="100%"></stop></linearGradient></defs><g fill="url(#sssurf-grad)" transform="matrix(1,0,0,1,0,-30.878326416015625)"><path d="M 0 330.94612873839276 Q 450 569.8147215756884 600 312.8845592840659 Q 1050 637.0884739597118 1200 305.7566317869011 Q 1650 570.8376650185775 1800 315.90380233988907 Q 2250 473.7040272866454 2400 335.4106881410564 L 2400 800 L 0 800 L 0 328.7510420240135 Z" transform="matrix(1,0,0,1,0,39)" opacity="0.05"></path><path d="M 0 330.94612873839276 Q 450 569.8147215756884 600 312.8845592840659 Q 1050 637.0884739597118 1200 305.7566317869011 Q 1650 570.8376650185775 1800 315.90380233988907 Q 2250 473.7040272866454 2400 335.4106881410564 L 2400 800 L 0 800 L 0 328.7510420240135 Z" transform="matrix(1,0,0,1,0,78)" opacity="0.53"></path><path d="M 0 330.94612873839276 Q 450 569.8147215756884 600 312.8845592840659 Q 1050 637.0884739597118 1200 305.7566317869011 Q 1650 570.8376650185775 1800 315.90380233988907 Q 2250 473.7040272866454 2400 335.4106881410564 L 2400 800 L 0 800 L 0 328.7510420240135 Z" transform="matrix(1,0,0,1,0,117)" opacity="1.00"></path></g></svg>